<svg width="11046" height="7222" viewBox="0 0 11046 7222" fill="none" xmlns="http://www.w3.org/2000/svg">
<g clip-path="url(#clip0_200_30)">
<rect width="11046" height="7222" fill="#220D0D"/>
<path fill-rule="evenodd" clip-rule="evenodd" d="M3245.76 2886.58C3242.21 2846.01 3207.44 2821.66 3168.09 2832.2L1244.7 3347.57L1296.12 3935.33L2008.49 3744.45L2072.76 4479.14L2642.66 4326.44L2578.38 3591.75L3290.75 3400.87L3245.76 2886.58ZM3303.61 3547.81L2733.71 3700.51L2785.13 4288.26L3283.79 4154.65C3323.13 4144.1 3352.15 4102.67 3348.6 4062.09L3303.61 3547.81ZM1930.29 4517.32L1878.87 3929.56L1166.5 4120.44L1102.22 3385.75L603.566 3519.36C564.223 3529.91 535.207 3571.35 538.757 3611.92L641.6 4787.43C645.15 4828 679.922 4852.35 719.265 4841.81L1930.29 4517.32ZM393.712 3620.71C384.482 3515.21 459.924 3407.47 562.216 3380.06L3183.73 2677.63C3286.02 2650.22 3376.43 2713.52 3385.66 2819.02L3493.64 4053.3C3502.87 4158.8 3427.43 4266.54 3325.14 4293.95L703.626 4996.38C601.334 5023.79 510.928 4960.49 501.698 4854.99L393.712 3620.71Z" fill="black"/>
<path fill-rule="evenodd" clip-rule="evenodd" d="M3303.61 3547.8L2733.71 3700.51L2785.13 4288.26L3283.79 4154.65C3323.13 4144.1 3352.15 4102.67 3348.6 4062.09L3303.61 3547.8Z" fill="#A94343"/>
<mask id="path-3-inside-1_200_30" fill="white">
<path fill-rule="evenodd" clip-rule="evenodd" d="M7329.88 5168.11C7315.59 5114.76 7347.25 5059.93 7400.59 5045.63L8016.37 4880.64L8207.25 5593.01L8919.62 5402.13L9110.49 6114.5L8398.13 6305.37L7782.35 6470.37C7729 6484.67 7674.17 6453.01 7659.88 6399.66L7329.88 5168.11ZM10344.4 5020.37L9631.98 5211.25L9822.86 5923.62L10438.6 5758.62C10492 5744.33 10523.6 5689.49 10509.3 5636.15L10344.4 5020.37Z"/>
</mask>
<path fill-rule="evenodd" clip-rule="evenodd" d="M7329.88 5168.11C7315.59 5114.76 7347.25 5059.93 7400.59 5045.63L8016.37 4880.64L8207.25 5593.01L8919.62 5402.13L9110.49 6114.5L8398.13 6305.37L7782.35 6470.37C7729 6484.67 7674.17 6453.01 7659.88 6399.66L7329.88 5168.11ZM10344.4 5020.37L9631.98 5211.25L9822.86 5923.62L10438.6 5758.62C10492 5744.33 10523.6 5689.49 10509.3 5636.15L10344.4 5020.37Z" fill="white"/>
<path d="M8016.37 4880.64L8064.67 4867.7L8051.72 4819.4L8003.43 4832.34L8016.37 4880.64ZM8207.25 5593.01L8158.95 5605.95L8171.89 5654.24L8220.19 5641.3L8207.25 5593.01ZM8919.62 5402.13L8967.91 5389.19L8954.97 5340.89L8906.67 5353.83L8919.62 5402.13ZM9110.49 6114.5L9123.44 6162.79L9171.73 6149.85L9158.79 6101.56L9110.49 6114.5ZM9631.98 5211.25L9619.04 5162.95L9570.75 5175.89L9583.69 5224.19L9631.98 5211.25ZM10344.4 5020.37L10392.6 5007.43L10379.7 4959.13L10331.4 4972.07L10344.4 5020.37ZM9822.86 5923.62L9774.57 5936.56L9787.51 5984.85L9835.8 5971.91L9822.86 5923.62ZM7387.65 4997.34C7307.63 5018.78 7260.14 5101.03 7281.59 5181.05L7378.18 5155.17C7371.03 5128.49 7386.86 5101.08 7413.53 5093.93L7387.65 4997.34ZM8003.43 4832.34L7387.65 4997.34L7413.53 5093.93L8029.31 4928.93L8003.43 4832.34ZM8255.54 5580.07L8064.67 4867.7L7968.07 4893.58L8158.95 5605.95L8255.54 5580.07ZM8906.67 5353.83L8194.31 5544.71L8220.19 5641.3L8932.56 5450.42L8906.67 5353.83ZM9158.79 6101.56L8967.91 5389.19L8871.32 5415.07L9062.2 6127.44L9158.79 6101.56ZM8411.07 6353.67L9123.44 6162.79L9097.55 6066.2L8385.18 6257.08L8411.07 6353.67ZM7795.29 6518.67L8411.07 6353.67L8385.18 6257.08L7769.41 6422.08L7795.29 6518.67ZM7611.58 6412.6C7633.02 6492.62 7715.27 6540.11 7795.29 6518.67L7769.41 6422.08C7742.74 6429.22 7715.32 6413.39 7708.17 6386.72L7611.58 6412.6ZM7281.59 5181.05L7611.58 6412.6L7708.17 6386.72L7378.18 5155.17L7281.59 5181.05ZM9644.92 5259.54L10357.3 5068.67L10331.4 4972.07L9619.04 5162.95L9644.92 5259.54ZM9871.16 5910.68L9680.28 5198.31L9583.69 5224.19L9774.57 5936.56L9871.16 5910.68ZM10425.7 5710.32L9809.92 5875.32L9835.8 5971.91L10451.6 5806.92L10425.7 5710.32ZM10461.1 5649.09C10468.2 5675.76 10452.4 5703.18 10425.7 5710.32L10451.6 5806.92C10531.6 5785.47 10579.1 5703.22 10557.6 5623.2L10461.1 5649.09ZM10296.1 5033.31L10461.1 5649.09L10557.6 5623.2L10392.6 5007.43L10296.1 5033.31Z" fill="black" mask="url(#path-3-inside-1_200_30)"/>
<path d="M8913.14 5377.98L8224.92 5562.39L8046.99 4898.31L8735.21 4713.91L9447.58 4523.03L10017.5 4370.32C10082.8 4352.81 10150 4391.59 10167.5 4456.94L10313.7 5002.69L9625.51 5187.1L9601.36 5193.57L9607.84 5217.72L9792.24 5905.94L9128.17 6083.88L8943.76 5395.66L8937.29 5371.51L8913.14 5377.98Z" fill="#D9D9D9" stroke="black" stroke-width="50"/>
<path fill-rule="evenodd" clip-rule="evenodd" d="M788.114 5810.06C734.767 5824.36 695.424 5880.54 700.237 5935.56L811.36 7205.71C816.174 7260.73 863.322 7293.74 916.668 7279.44L1532.44 7114.45L1403.89 5645.06L788.114 5810.06ZM2180.54 6188.88L1468.17 6379.76L1532.44 7114.45L2244.81 6923.57L2180.54 6188.88Z" fill="#D9D9D9"/>
<path fill-rule="evenodd" clip-rule="evenodd" d="M3444.4 5098.31L1403.89 5645.07L1468.17 6379.76L3508.68 5833C3562.03 5818.71 3601.37 5762.52 3596.56 5707.5L3549.71 5172.05C3544.9 5117.03 3497.75 5084.02 3444.4 5098.31ZM2948.47 6633.07L2892.9 5998L2180.54 6188.88L2244.81 6923.57L2860.59 6758.57C2913.94 6744.28 2953.28 6688.09 2948.47 6633.07Z" fill="#8F0000"/>
<path fill-rule="evenodd" clip-rule="evenodd" d="M7585.87 196.997L7394.99 -515.372L6967.57 -400.845L7272.98 738.945L8412.77 433.539L8298.24 6.11809L7585.87 196.997ZM8402.54 -174.531L8593.42 537.837L7311.15 881.418C7232.47 902.502 7151.59 855.806 7130.5 777.12L6825.1 -362.669C6804.01 -441.355 6850.71 -522.234 6929.4 -543.318L7499.29 -696.021L7690.17 16.3472L8402.54 -174.531ZM9722.98 -375.639L9295.55 -261.112L9410.08 166.309L9837.5 51.782L9722.98 -375.639ZM9827.27 -556.288L9979.98 13.6063C10001.1 92.2923 9954.36 173.172 9875.68 194.256L9305.78 346.959L9114.9 -365.41L9827.27 -556.288Z" fill="white"/>
<path fill-rule="evenodd" clip-rule="evenodd" d="M8402.54 -174.532L8593.41 537.837L9305.78 346.958L9114.9 -365.41L9827.27 -556.289L9674.57 -1126.18C9653.49 -1204.87 9572.61 -1251.57 9493.92 -1230.48L7499.29 -696.021L7690.17 16.3469L8402.54 -174.532ZM7794.47 -164.303L8506.83 -355.181L8697.71 357.187L9125.13 242.66L8934.26 -469.708L9646.62 -660.587L9532.1 -1088.01L7679.94 -591.724L7794.47 -164.303Z" fill="white"/>
<path fill-rule="evenodd" clip-rule="evenodd" d="M3937.45 258.371L4128.33 970.739L4840.69 779.861L5005.69 1395.64C5019.99 1448.98 5074.82 1480.64 5128.17 1466.35L5647.35 1327.23C5700.7 1312.94 5732.35 1258.1 5718.06 1204.76L5553.06 588.982L6168.84 423.986C6222.19 409.692 6253.84 354.858 6239.55 301.511L6100.43 -217.672C6086.14 -271.018 6031.31 -302.677 5977.96 -288.382L5265.59 -97.504L4746.41 41.6107L3937.45 258.371Z" fill="#535353"/>
<path fill-rule="evenodd" clip-rule="evenodd" d="M3250.96 545.843C3236.67 492.496 3268.33 437.662 3321.67 423.368L3937.45 258.371L4319.2 1683.11L3703.43 1848.1C3650.08 1862.4 3595.25 1830.74 3580.95 1777.39L3250.96 545.843ZM4319.2 1683.11L4934.98 1518.11C4988.33 1503.82 5043.16 1535.48 5057.46 1588.82L5196.57 2108.01C5210.86 2161.35 5179.21 2216.19 5125.86 2230.48L4606.68 2369.59C4553.33 2383.89 4498.5 2352.23 4484.2 2298.88L4319.2 1683.11ZM5840.53 1275.47C5787.19 1289.76 5755.53 1344.6 5769.82 1397.94L5908.94 1917.13C5923.23 1970.47 5978.07 2002.13 6031.41 1987.84L6550.6 1848.72C6603.94 1834.43 6635.6 1779.59 6621.31 1726.25L6482.19 1207.07C6467.9 1153.72 6413.06 1122.06 6359.72 1136.35L5840.53 1275.47Z" fill="#D9D9D9"/>
<path fill-rule="evenodd" clip-rule="evenodd" d="M4611.46 2741.06C4340.98 2822.8 4182.47 3105.21 4256.13 3380.11L4602.78 4673.84L5749.12 4366.68L5617.48 3875.39L4962.43 4050.91L4611.46 2741.06ZM5810.55 4595.94L4434.95 4964.54L4026.86 3441.54C3917.81 3034.55 4159.34 2616.2 4566.33 2507.15L4779.23 2450.1L4937.19 3039.65L6967.85 2495.54L7222.36 3445.36L6567.31 3620.88L6720.89 4194.05C6829.94 4601.05 6588.41 5019.39 6181.41 5128.45L5968.52 5185.49L5810.55 4595.94ZM5130.27 3760.21L5785.32 3584.69L6136.29 4894.53C6406.77 4812.79 6565.28 4530.38 6491.62 4255.48L6276.61 3453.05L6931.66 3277.53L6800.02 2786.24L4998.63 3268.92L5130.27 3760.21Z" fill="black"/>
<g filter="url(#filter0_d_200_30)">
<path fill-rule="evenodd" clip-rule="evenodd" d="M8294.49 2271.71L8485.37 2984.08L9197.74 2793.2L9579.49 4217.93C9972.92 4112.51 10206.4 3708.12 10101 3314.69L9910.1 2602.32L10622.5 2411.44L10431.6 1699.07L9719.23 1889.95L9006.86 2080.83L8294.49 2271.71Z" fill="black"/>
<path fill-rule="evenodd" clip-rule="evenodd" d="M8103.61 1559.34C7710.18 1664.76 7476.7 2069.16 7582.12 2462.59L7773 3174.95L7940.58 3800.39L7963.88 3887.32L8050.81 3864.03L8676.25 3696.44L9388.61 3505.56L9197.74 2793.2L8485.37 2984.07L8103.61 1559.34Z" fill="#F72C15"/>
</g>
<path fill-rule="evenodd" clip-rule="evenodd" d="M3882.19 6245.99C3846.69 5840.23 4136.86 5425.84 4530.29 5320.42L4594.56 6055.11L5306.93 5864.23C5700.36 5758.81 6048.08 6002.29 6083.58 6408.05L5371.21 6598.92L5435.49 7333.62L4723.12 7524.49L4658.84 6789.8C4290 6888.63 3961.34 6680.82 3892.44 6320.12C3887.85 6296.08 3884.41 6271.35 3882.19 6245.99L3882.19 6245.99Z" fill="#D9D9D9"/>
</g>
<defs>
<filter id="filter0_d_200_30" x="7391.24" y="986.703" width="3630.99" height="3630.99" filterUnits="userSpaceOnUse" color-interpolation-filters="sRGB">
<feFlood flood-opacity="0" result="BackgroundImageFix"/>
<feColorMatrix in="SourceAlpha" type="matrix" values="0 0 0 0 0 0 0 0 0 0 0 0 0 0 0 0 0 0 127 0" result="hardAlpha"/>
<feOffset dx="10" dy="10"/>
<feGaussianBlur stdDeviation="4"/>
<feComposite in2="hardAlpha" operator="out"/>
<feColorMatrix type="matrix" values="0 0 0 0 0 0 0 0 0 0 0 0 0 0 0 0 0 0 0.25 0"/>
<feBlend mode="normal" in2="BackgroundImageFix" result="effect1_dropShadow_200_30"/>
<feBlend mode="normal" in="SourceGraphic" in2="effect1_dropShadow_200_30" result="shape"/>
</filter>
<clipPath id="clip0_200_30">
<rect width="11046" height="7222" fill="white"/>
</clipPath>
</defs>
</svg>
