<svg width="2292" height="1084" viewBox="0 0 2292 1084" fill="none" xmlns="http://www.w3.org/2000/svg">
<path fill-rule="evenodd" clip-rule="evenodd" d="M2165.95 147.721C2170.75 120.526 2152.25 98.4808 2124.64 98.4808H774.635L705.176 492.404H1205.18L1118.35 984.808H1518.35L1605.18 492.404H2105.18L2165.95 147.721ZM2087.81 590.885H1687.81L1618.35 984.808H1968.35C1995.97 984.808 2022.24 962.762 2027.03 935.567L2087.81 590.885ZM1018.35 984.808L1087.81 590.885H587.811L674.635 98.4808H324.635C297.021 98.4808 270.748 120.526 265.953 147.721L127.034 935.567C122.239 962.762 140.738 984.808 168.352 984.808H1018.35ZM169.426 128.025C181.893 57.3188 250.203 0 322 0H2162C2233.8 0 2281.89 57.3188 2269.43 128.025L2123.56 955.263C2111.09 1025.97 2042.78 1083.29 1970.99 1083.29H130.987C59.1901 1083.29 11.0939 1025.97 23.5613 955.263L169.426 128.025Z" fill="white"/>
<path fill-rule="evenodd" clip-rule="evenodd" d="M2087.81 590.885H1687.81L1618.35 984.808H1968.35C1995.97 984.808 2022.24 962.762 2027.03 935.567L2087.81 590.885Z" fill="#A94343"/>
</svg>
