<svg width="2100" height="1100" viewBox="0 0 2100 1100" fill="none" xmlns="http://www.w3.org/2000/svg">
<path fill-rule="evenodd" clip-rule="evenodd" d="M2000 150C2000 122.386 1977.61 100 1950 100H600V500H1100V1000H1500V500H2000V150ZM2000 600H1600V1000H1950C1977.61 1000 2000 977.614 2000 950V600ZM1000 1000V600H500V100H150C122.386 100 100 122.386 100 150V950C100 977.614 122.386 1000 150 1000H1000ZM0 130C0 58.203 58.203 0 130 0H1970C2041.8 0 2100 58.203 2100 130V970C2100 1041.8 2041.8 1100 1970 1100H130C58.203 1100 0 1041.8 0 970V130Z" fill="white"/>
<path fill-rule="evenodd" clip-rule="evenodd" d="M2000 600H1600V1000H1950C1977.61 1000 2000 977.614 2000 950V600Z" fill="#A94343"/>
</svg>
