<svg width="700" height="700" viewBox="0 0 700 700" fill="none" xmlns="http://www.w3.org/2000/svg">
<path fill-rule="evenodd" clip-rule="evenodd" d="M130 245C130 187.01 177.01 140 235 140H260V230H570V360H470V455C470 512.99 422.99 560 365 560H340V470H130V245ZM235 160C188.056 160 150 198.056 150 245V450H340V360H240V160H235ZM260 250V340H360V540H365C411.944 540 450 501.944 450 455V340H550V250H260Z" fill="#FF0000"/>
<path d="M270 140V130H260H235C171.487 130 120 181.487 120 245V470V480H130H330V560V570H340H365C428.513 570 480 518.513 480 455V370H570H580V360V230V220H570H270V140ZM230 360V370H240H330V440H160V245C160 205.259 190.91 172.737 230 170.164V360ZM370 340V330H360H270V260H540V330H450H440V340V455C440 494.741 409.09 527.263 370 529.836V340Z" stroke="black" stroke-opacity="0.25" stroke-width="20"/>
</svg>
