<svg width="800" height="800" viewBox="0 0 800 800" fill="none" xmlns="http://www.w3.org/2000/svg">
<g filter="url(#filter0_i_118_20)">
<rect width="800" height="800" rx="400" fill="url(#paint0_linear_118_20)"/>
<path d="M185 515H180V520H185V515ZM395 515H400V510H395V515ZM395 605H390V610H395V605ZM515 405V400H510V405H515ZM615 405V410H620V405H615ZM615 285H620V280H615V285ZM305 285H300V290H305V285ZM305 195H310V190H305V195ZM305 295V290H300V295H305ZM305 395H300V400H305V395ZM405 395H410V390H405V395ZM405 595H400V600H405V595ZM505 395V390H500V395H505ZM605 395V400H610V395H605ZM605 295H610V290H605V295ZM295 205H300V200H295V205ZM195 505H190V510H195V505ZM395 505V510H400V505H395ZM395 405H400V400H395V405ZM295 405H290V410H295V405ZM190 515V505H180V515H190ZM195 510H185V520H195V510ZM285 510H195V520H285V510ZM295 510H285V520H295V510ZM395 510H295V520H395V510ZM400 595V515H390V595H400ZM400 605V595H390V605H400ZM405 600H395V610H405V600ZM415 600H405V610H415V600ZM510 505C510 557.467 467.467 600 415 600V610C472.99 610 520 562.99 520 505H510ZM510 405V505H520V405H510ZM605 400H515V410H605V400ZM615 400H605V410H615V400ZM610 395V405H620V395H610ZM610 295V395H620V295H610ZM610 285V295H620V285H610ZM605 290H615V280H605V290ZM505 290H605V280H505V290ZM405 290H505V280H405V290ZM305 290H405V280H305V290ZM300 205V285H310V205H300ZM300 195V205H310V195H300ZM295 200H305V190H295V200ZM285 200H295V190H285V200ZM190 295C190 242.533 232.533 200 285 200V190C227.01 190 180 237.01 180 295H190ZM190 405V295H180V405H190ZM190 415V405H180V415H190ZM190 505V415H180V505H190ZM300 295V305H310V295H300ZM300 305V385H310V305H300ZM300 385V395H310V385H300ZM305 400H315V390H305V400ZM315 400H395V390H315V400ZM395 400H405V390H395V400ZM400 395V405H410V395H400ZM400 405V505H410V405H400ZM400 505V515H410V505H400ZM400 515V585H410V515H400ZM400 585V595H410V585H400ZM405 600H415V590H405V600ZM415 600C467.467 600 510 557.467 510 505H500C500 551.944 461.944 590 415 590V600ZM510 505V405H500V505H510ZM510 405V395H500V405H510ZM505 400H515V390H505V400ZM515 400H595V390H515V400ZM595 400H605V390H595V400ZM610 395V385H600V395H610ZM610 385V305H600V385H610ZM610 305V295H600V305H610ZM605 290H595V300H605V290ZM595 290H505V300H595V290ZM505 290H405V300H505V290ZM405 290H315V300H405V290ZM315 290H305V300H315V290ZM300 285V215H290V285H300ZM300 215V205H290V215H300ZM295 200H285V210H295V200ZM285 200C232.533 200 190 242.533 190 295H200C200 248.056 238.056 210 285 210V200ZM190 295V405H200V295H190ZM190 405V415H200V405H190ZM190 415V495H200V415H190ZM190 495V505H200V495H190ZM195 510H205V500H195V510ZM205 510H285V500H205V510ZM285 510H295V500H285V510ZM295 510H385V500H295V510ZM385 510H395V500H385V510ZM400 505V495H390V505H400ZM400 495V415H390V495H400ZM400 415V405H390V415H400ZM395 400H385V410H395V400ZM385 400H305V410H385V400ZM305 400H295V410H305V400ZM300 405V395H290V405H300ZM300 395V295H290V395H300ZM300 295V285H290V295H300Z" fill="#FF0000"/>
</g>
<defs>
<filter id="filter0_i_118_20" x="0" y="0" width="800" height="800" filterUnits="userSpaceOnUse" color-interpolation-filters="sRGB">
<feFlood flood-opacity="0" result="BackgroundImageFix"/>
<feBlend mode="normal" in="SourceGraphic" in2="BackgroundImageFix" result="shape"/>
<feColorMatrix in="SourceAlpha" type="matrix" values="0 0 0 0 0 0 0 0 0 0 0 0 0 0 0 0 0 0 127 0" result="hardAlpha"/>
<feOffset/>
<feGaussianBlur stdDeviation="54.5"/>
<feComposite in2="hardAlpha" operator="arithmetic" k2="-1" k3="1"/>
<feColorMatrix type="matrix" values="0 0 0 0 0 0 0 0 0 0 0 0 0 0 0 0 0 0 1 0"/>
<feBlend mode="normal" in2="shape" result="effect1_innerShadow_118_20"/>
</filter>
<linearGradient id="paint0_linear_118_20" x1="400" y1="0" x2="400" y2="800" gradientUnits="userSpaceOnUse">
<stop stop-color="#1E1E1E"/>
<stop offset="1" stop-color="#110000"/>
</linearGradient>
</defs>
</svg>
