<svg width="500" height="500" viewBox="0 0 500 500" fill="none" xmlns="http://www.w3.org/2000/svg">
<path d="M35 365H25V375H35V365ZM245 365H255V355H245V365ZM245 455H235V465H245V455ZM365 255V245H355V255H365ZM465 255V265H475V255H465ZM465 135H475V125H465V135ZM155 135H145V145H155V135ZM155 45H165V35H155V45ZM155 145V135H145V145H155ZM155 245H145V255H155V245ZM255 245H265V235H255V245ZM255 445H245V455H255V445ZM355 245V235H345V245H355ZM455 245V255H465V245H455ZM455 145H465V135H455V145ZM145 55H155V45H145V55ZM45 355H35V365H45V355ZM245 355V365H255V355H245ZM245 255H255V245H245V255ZM145 255H135V265H145V255ZM45 365V355H25V365H45ZM45 355H35V375H45V355ZM135 355H45V375H135V355ZM145 355H135V375H145V355ZM245 355H145V375H245V355ZM255 445V365H235V445H255ZM255 455V445H235V455H255ZM255 445H245V465H255V445ZM265 445H255V465H265V445ZM355 355C355 404.706 314.706 445 265 445V465C325.751 465 375 415.751 375 355H355ZM355 255V355H375V255H355ZM455 245H365V265H455V245ZM465 245H455V265H465V245ZM455 245V255H475V245H455ZM455 145V245H475V145H455ZM455 135V145H475V135H455ZM455 145H465V125H455V145ZM355 145H455V125H355V145ZM255 145H355V125H255V145ZM155 145H255V125H155V145ZM145 55V135H165V55H145ZM145 45V55H165V45H145ZM145 55H155V35H145V55ZM135 55H145V35H135V55ZM45 145C45 95.2944 85.2944 55 135 55V35C74.2487 35 25 84.2487 25 145H45ZM45 255V145H25V255H45ZM45 265V255H25V265H45ZM45 355V265H25V355H45ZM145 145V155H165V145H145ZM145 155V235H165V155H145ZM145 235V245H165V235H145ZM155 255H165V235H155V255ZM165 255H245V235H165V255ZM245 255H255V235H245V255ZM245 245V255H265V245H245ZM245 255V355H265V255H245ZM245 355V365H265V355H245ZM245 365V435H265V365H245ZM245 435V445H265V435H245ZM255 455H265V435H255V455ZM265 455C320.228 455 365 410.228 365 355H345C345 399.183 309.183 435 265 435V455ZM365 355V255H345V355H365ZM365 255V245H345V255H365ZM355 255H365V235H355V255ZM365 255H445V235H365V255ZM445 255H455V235H445V255ZM465 245V235H445V245H465ZM465 235V155H445V235H465ZM465 155V145H445V155H465ZM455 135H445V155H455V135ZM445 135H355V155H445V135ZM355 135H255V155H355V135ZM255 135H165V155H255V135ZM165 135H155V155H165V135ZM155 135V65H135V135H155ZM155 65V55H135V65H155ZM145 45H135V65H145V45ZM135 45C79.7715 45 35 89.7715 35 145H55C55 100.817 90.8172 65 135 65V45ZM35 145V255H55V145H35ZM35 255V265H55V255H35ZM35 265V345H55V265H35ZM35 345V355H55V345H35ZM45 365H55V345H45V365ZM55 365H135V345H55V365ZM135 365H145V345H135V365ZM145 365H235V345H145V365ZM235 365H245V345H235V365ZM255 355V345H235V355H255ZM255 345V265H235V345H255ZM255 265V255H235V265H255ZM245 245H235V265H245V245ZM235 245H155V265H235V245ZM155 245H145V265H155V245ZM155 255V245H135V255H155ZM155 245V145H135V245H155ZM155 145V135H135V145H155Z" fill="#FF3E3E" fill-opacity="0.8"/>
</svg>
