<svg width="500" height="500" viewBox="0 0 500 500" fill="none" xmlns="http://www.w3.org/2000/svg">
<g clip-path="url(#clip0_164_34)">
<path fill-rule="evenodd" clip-rule="evenodd" d="M373.743 409.099C383.507 418.862 399.336 418.862 409.099 409.099C418.862 399.336 418.862 383.507 409.099 373.744L285.355 250L409.099 126.256C418.862 116.493 418.862 100.664 409.099 90.901C399.336 81.1379 383.507 81.1379 373.743 90.901L250 214.645L126.256 90.901C116.493 81.1379 100.664 81.1379 90.9008 90.901C81.1377 100.664 81.1377 116.493 90.9008 126.256L214.644 250L90.9008 373.744C81.1377 383.507 81.1377 399.336 90.9008 409.099C100.664 418.862 116.493 418.862 126.256 409.099L250 285.355L373.743 409.099Z" fill="white"/>
</g>
<defs>
<clipPath id="clip0_164_34">
<rect width="500" height="500" fill="white"/>
</clipPath>
</defs>
</svg>
